<svg xmlns="http://www.w3.org/2000/svg" viewBox="0 0 656.58 656.58"><defs><style>.cls-1,.cls-6{fill:#eceeef;}.cls-1,.cls-2,.cls-3,.cls-7{stroke:#101b2b;stroke-width:10px;}.cls-1,.cls-2{stroke-miterlimit:10;}.cls-2{fill:#a5acaf;}.cls-3,.cls-9{fill:none;}.cls-3,.cls-7,.cls-9{stroke-linecap:round;stroke-linejoin:round;}.cls-4{fill:#d4d6d7;}.cls-5{fill:#101b2b;}.cls-7{fill:#0094ef;}.cls-8{fill:#34b5ae;}.cls-9{stroke:#fff;stroke-width:8.19px;}.cls-10{fill:#d1d1d1;}</style></defs><title>Insights</title><g id="Circle"><circle class="cls-1" cx="328.29" cy="328.29" r="318.29"/><circle class="cls-2" cx="328.29" cy="328.29" r="318.29"/></g><g id="Layer_1" data-name="Layer 1"><line class="cls-3" x1="105.94" y1="556.04" x2="306.36" y2="556.04"/><line class="cls-3" x1="350.33" y1="556.04" x2="550.75" y2="556.04"/><path class="cls-4" d="M436.87,878.9a323.29,323.29,0,1,1,228.6-94.69A321.17,321.17,0,0,1,436.87,878.9Z" transform="translate(-108.58 -227.31)"/><path class="cls-5" d="M436.87,237.31c175.79,0,318.29,142.5,318.29,318.29S612.66,873.9,436.87,873.9,118.58,731.39,118.58,555.6s142.5-318.29,318.29-318.29m0-10a327.3,327.3,0,1,0,127.79,25.8,326.25,326.25,0,0,0-127.79-25.8Z" transform="translate(-108.58 -227.31)"/><path class="cls-6" d="M214.86,783.35a318.21,318.21,0,0,0,444.64,0H458.91L455.17,795h-32.9l-7.33-11.64Z" transform="translate(-108.58 -227.31)"/><line class="cls-3" x1="350.33" y1="556.04" x2="557.31" y2="556.04"/><line class="cls-3" x1="101.13" y1="556.04" x2="301.56" y2="556.04"/><path class="cls-7" d="M584,485.82A146.82,146.82,0,1,0,350.7,604.46L371,677.74H502.88l20.78-73.28A146.61,146.61,0,0,0,584,485.82Z" transform="translate(-108.58 -227.31)"/><path class="cls-3" d="M488.22,736.37v22a7.35,7.35,0,0,1-7.33,7.33H393a7.35,7.35,0,0,1-7.33-7.33v-22" transform="translate(-108.58 -227.31)"/><path class="cls-8" d="M458.91,765.68v22a7.35,7.35,0,0,1-7.33,7.33H422.27a7.35,7.35,0,0,1-7.33-7.33v-22" transform="translate(-108.58 -227.31)"/><path class="cls-3" d="M458.91,765.68v22a7.35,7.35,0,0,1-7.33,7.33H422.27a7.35,7.35,0,0,1-7.33-7.33v-22" transform="translate(-108.58 -227.31)"/><line class="cls-3" x1="401.63" y1="509.06" x2="255.07" y2="509.06"/><line class="cls-3" x1="255.07" y1="479.74" x2="401.63" y2="479.74"/><line class="cls-9" x1="364.99" y1="245.24" x2="379.65" y2="245.24"/><line class="cls-9" x1="394.3" y1="274.56" x2="408.96" y2="274.56"/><line class="cls-9" x1="335.68" y1="245.24" x2="350.33" y2="245.24"/><line class="cls-9" x1="394.3" y1="245.24" x2="408.96" y2="245.24"/><line class="cls-9" x1="394.3" y1="303.87" x2="408.96" y2="303.87"/><line class="cls-9" x1="277.05" y1="274.56" x2="291.71" y2="274.56"/><line class="cls-9" x1="247.74" y1="274.56" x2="262.4" y2="274.56"/><line class="cls-9" x1="306.36" y1="274.56" x2="321.02" y2="274.56"/><line class="cls-9" x1="277.05" y1="303.87" x2="291.71" y2="303.87"/><line class="cls-9" x1="247.74" y1="303.87" x2="262.4" y2="303.87"/><line class="cls-9" x1="247.74" y1="245.24" x2="262.4" y2="245.24"/><line class="cls-9" x1="364.99" y1="215.93" x2="379.65" y2="215.93"/><line class="cls-9" x1="335.68" y1="215.93" x2="350.33" y2="215.93"/><line class="cls-9" x1="394.3" y1="215.93" x2="408.96" y2="215.93"/><line class="cls-9" x1="247.74" y1="215.93" x2="262.4" y2="215.93"/><line class="cls-9" x1="364.99" y1="186.62" x2="379.65" y2="186.62"/><line class="cls-9" x1="335.68" y1="186.62" x2="350.33" y2="186.62"/><line class="cls-9" x1="277.05" y1="186.62" x2="291.71" y2="186.62"/><line class="cls-9" x1="306.36" y1="186.62" x2="321.02" y2="186.62"/><line class="cls-9" x1="364.99" y1="333.18" x2="379.65" y2="333.18"/><line class="cls-9" x1="335.68" y1="333.18" x2="350.33" y2="333.18"/><line class="cls-9" x1="277.05" y1="333.18" x2="291.71" y2="333.18"/><line class="cls-9" x1="306.36" y1="333.18" x2="321.02" y2="333.18"/><line class="cls-9" x1="306.36" y1="303.87" x2="321.02" y2="303.87"/><rect class="cls-9" x="284.38" y="215.93" width="29.31" height="29.31"/><rect class="cls-9" x="343" y="274.56" width="29.31" height="29.31"/><ellipse class="cls-10" cx="328.6" cy="611.99" rx="75.95" ry="9.9"/></g></svg>